<svg xmlns="http://www.w3.org/2000/svg" xmlns:xlink="http://www.w3.org/1999/xlink" width="549" zoomAndPan="magnify" viewBox="0 0 411.75 233.999995" height="312" preserveAspectRatio="xMidYMid meet" version="1.0"><defs><filter x="0%" y="0%" width="100%" height="100%" id="092d8c8e80"><feColorMatrix values="0 0 0 0 1 0 0 0 0 1 0 0 0 0 1 0 0 0 1 0" color-interpolation-filters="sRGB"/></filter><g/><mask id="9b876e8263"><g filter="url(#092d8c8e80)"><rect x="-41.175" width="494.1" fill="#000000" y="-23.399999" height="280.799994" fill-opacity="0.2"/></g></mask><clipPath id="1b297d4518"><rect x="0" width="70" y="0" height="115"/></clipPath></defs><g fill="#68aa78" fill-opacity="1"><g transform="translate(36.772349, 93.873348)"><g><path d="M 2.34375 -32.40625 C 2.34375 -37.007812 3.09375 -41.320312 4.59375 -45.34375 C 6.09375 -49.375 8.25 -52.921875 11.0625 -55.984375 C 13.882812 -59.046875 17.265625 -61.4375 21.203125 -63.15625 C 25.140625 -64.882812 29.546875 -65.75 34.421875 -65.75 C 39.203125 -65.75 43.601562 -65.078125 47.625 -63.734375 C 51.65625 -62.390625 54.96875 -60.289062 57.5625 -57.4375 C 56.976562 -56.050781 56.429688 -54.617188 55.921875 -53.140625 C 55.410156 -51.660156 54.953125 -50.296875 54.546875 -49.046875 C 54.140625 -47.796875 53.8125 -46.773438 53.5625 -45.984375 C 53.320312 -45.203125 53.203125 -44.8125 53.203125 -44.8125 C 53.203125 -44.8125 52.898438 -45.222656 52.296875 -46.046875 C 51.691406 -46.878906 50.726562 -47.820312 49.40625 -48.875 C 48.09375 -49.925781 46.40625 -50.863281 44.34375 -51.6875 C 42.289062 -52.519531 39.8125 -52.9375 36.90625 -52.9375 C 33.457031 -52.9375 30.253906 -52.175781 27.296875 -50.65625 C 24.347656 -49.132812 21.96875 -46.851562 20.15625 -43.8125 C 18.34375 -40.769531 17.4375 -36.945312 17.4375 -32.34375 C 17.4375 -28.226562 18.226562 -24.554688 19.8125 -21.328125 C 21.40625 -18.109375 23.578125 -15.582031 26.328125 -13.75 C 29.078125 -11.914062 32.175781 -11 35.625 -11 C 37.550781 -11 39.539062 -11.335938 41.59375 -12.015625 L 41.59375 -32.40625 L 56.6875 -32.40625 L 56.6875 -6.171875 C 53.96875 -3.441406 50.738281 -1.5625 47 -0.53125 C 43.257812 0.488281 39.066406 1 34.421875 1 C 29.546875 1 25.140625 0.140625 21.203125 -1.578125 C 17.265625 -3.296875 13.882812 -5.6875 11.0625 -8.75 C 8.25 -11.820312 6.09375 -15.378906 4.59375 -19.421875 C 3.09375 -23.472656 2.34375 -27.800781 2.34375 -32.40625 Z M 2.34375 -32.40625 "/></g></g></g><g fill="#68aa78" fill-opacity="1"><g transform="translate(95.67598, 93.873348)"><g><path d="M -2.6875 -40.453125 C -1.03125 -40.546875 0.742188 -40.847656 2.640625 -41.359375 C 4.546875 -41.878906 6.425781 -42.53125 8.28125 -43.3125 C 10.144531 -44.09375 11.890625 -44.894531 13.515625 -45.71875 C 15.148438 -46.550781 16.523438 -47.300781 17.640625 -47.96875 L 17.640625 -8.390625 C 17.640625 -6.734375 17.84375 -5.085938 18.25 -3.453125 C 18.65625 -1.816406 19.238281 -0.664062 20 0 L 1.546875 0 C 2.304688 -0.664062 2.882812 -1.804688 3.28125 -3.421875 C 3.6875 -5.035156 3.890625 -6.664062 3.890625 -8.3125 L 3.890625 -30.53125 C 3.890625 -31.019531 3.84375 -31.78125 3.75 -32.8125 C 3.664062 -33.84375 3.421875 -34.914062 3.015625 -36.03125 C 2.617188 -37.144531 1.972656 -38.101562 1.078125 -38.90625 C 0.179688 -39.71875 -1.070312 -40.125 -2.6875 -40.125 Z M 11 -51.1875 C 9.34375 -51.1875 7.84375 -51.585938 6.5 -52.390625 C 5.164062 -53.203125 4.09375 -54.289062 3.28125 -55.65625 C 2.476562 -57.019531 2.078125 -58.503906 2.078125 -60.109375 C 2.078125 -61.765625 2.476562 -63.273438 3.28125 -64.640625 C 4.09375 -66.003906 5.164062 -67.085938 6.5 -67.890625 C 7.84375 -68.703125 9.34375 -69.109375 11 -69.109375 C 12.65625 -69.109375 14.164062 -68.703125 15.53125 -67.890625 C 16.894531 -67.085938 17.976562 -66.003906 18.78125 -64.640625 C 19.59375 -63.273438 20 -61.765625 20 -60.109375 C 20 -58.503906 19.59375 -57.019531 18.78125 -55.65625 C 17.976562 -54.289062 16.894531 -53.203125 15.53125 -52.390625 C 14.164062 -51.585938 12.65625 -51.1875 11 -51.1875 Z M 11 -51.1875 "/></g></g></g><g fill="#68aa78" fill-opacity="1"><g transform="translate(117.010099, 93.873348)"><g><path d="M 24.75 1 C 20.238281 1 16.269531 -0.015625 12.84375 -2.046875 C 9.425781 -4.078125 6.765625 -6.9375 4.859375 -10.625 C 2.960938 -14.320312 2.015625 -18.609375 2.015625 -23.484375 C 2.015625 -28.398438 2.960938 -32.691406 4.859375 -36.359375 C 6.765625 -40.023438 9.425781 -42.875 12.84375 -44.90625 C 16.269531 -46.945312 20.238281 -47.96875 24.75 -47.96875 C 29.3125 -47.96875 33.300781 -46.945312 36.71875 -44.90625 C 40.144531 -42.875 42.804688 -40.023438 44.703125 -36.359375 C 46.609375 -32.691406 47.5625 -28.398438 47.5625 -23.484375 C 47.5625 -18.609375 46.609375 -14.320312 44.703125 -10.625 C 42.804688 -6.9375 40.144531 -4.078125 36.71875 -2.046875 C 33.300781 -0.015625 29.3125 1 24.75 1 Z M 16.109375 -23.421875 C 16.109375 -19.878906 16.878906 -17.035156 18.421875 -14.890625 C 19.960938 -12.742188 22.070312 -11.671875 24.75 -11.671875 C 27.4375 -11.671875 29.5625 -12.742188 31.125 -14.890625 C 32.695312 -17.035156 33.484375 -19.878906 33.484375 -23.421875 C 33.484375 -26.992188 32.695312 -29.851562 31.125 -32 C 29.5625 -34.144531 27.4375 -35.21875 24.75 -35.21875 C 22.070312 -35.21875 19.960938 -34.144531 18.421875 -32 C 16.878906 -29.851562 16.109375 -26.992188 16.109375 -23.421875 Z M 16.109375 -23.421875 "/></g></g></g><g fill="#68aa78" fill-opacity="1"><g transform="translate(166.588438, 93.873348)"><g><path d="M 14.765625 0 L 0 -46.96875 L 14.09375 -46.96875 L 23.140625 -18.25 C 23.953125 -19.726562 24.769531 -21.335938 25.59375 -23.078125 C 26.425781 -24.828125 27.117188 -26.601562 27.671875 -28.40625 C 28.234375 -30.21875 28.515625 -31.929688 28.515625 -33.546875 C 28.515625 -34.847656 28.242188 -36.078125 27.703125 -37.234375 C 27.171875 -38.398438 26.378906 -39.363281 25.328125 -40.125 C 24.273438 -40.882812 22.941406 -41.265625 21.328125 -41.265625 L 21.328125 -41.59375 C 23.742188 -42.21875 26.125 -43.125 28.46875 -44.3125 C 30.820312 -45.5 33.03125 -46.71875 35.09375 -47.96875 C 37.28125 -47.257812 38.953125 -45.882812 40.109375 -43.84375 C 41.273438 -41.8125 41.859375 -39.296875 41.859375 -36.296875 C 41.859375 -33.609375 41.378906 -30.789062 40.421875 -27.84375 C 39.460938 -24.894531 38.210938 -21.875 36.671875 -18.78125 C 35.128906 -15.695312 33.472656 -12.578125 31.703125 -9.421875 C 29.929688 -6.273438 28.242188 -3.132812 26.640625 0 Z M 14.765625 0 "/></g></g></g><g fill="#68aa78" fill-opacity="1"><g transform="translate(210.464268, 93.873348)"><g><path d="M 0.671875 -40.328125 C 2.773438 -42.828125 5.300781 -44.722656 8.25 -46.015625 C 11.207031 -47.316406 14.585938 -47.96875 18.390625 -47.96875 C 21.609375 -47.96875 24.679688 -47.539062 27.609375 -46.6875 C 30.535156 -45.84375 33.140625 -44.570312 35.421875 -42.875 C 37.703125 -41.175781 39.515625 -39.082031 40.859375 -36.59375 C 42.203125 -34.113281 42.875 -31.21875 42.875 -27.90625 L 42.875 -14.421875 C 42.875 -13.171875 42.984375 -11.921875 43.203125 -10.671875 C 43.429688 -9.421875 43.914062 -8.378906 44.65625 -7.546875 C 45.394531 -6.722656 46.566406 -6.3125 48.171875 -6.3125 L 48.171875 -5.96875 C 46.878906 -5.300781 45.515625 -4.5625 44.078125 -3.75 C 42.648438 -2.945312 41.273438 -2.1875 39.953125 -1.46875 C 38.628906 -0.757812 37.460938 -0.171875 36.453125 0.296875 C 35.453125 0.765625 34.753906 1 34.359375 1 C 33.234375 1 32.28125 0.53125 31.5 -0.40625 C 30.71875 -1.34375 30.125 -2.515625 29.71875 -3.921875 C 29.320312 -5.328125 29.125 -6.703125 29.125 -8.046875 L 29.125 -15.15625 C 28.269531 -13.820312 27.316406 -12.347656 26.265625 -10.734375 C 25.210938 -9.117188 24.207031 -7.550781 23.25 -6.03125 C 22.289062 -4.507812 21.472656 -3.238281 20.796875 -2.21875 C 20.484375 -1.675781 19.65625 -1.003906 18.3125 -0.203125 C 16.96875 0.597656 15.378906 1 13.546875 1 C 10.773438 1 8.515625 0.441406 6.765625 -0.671875 C 5.023438 -1.785156 3.765625 -3.269531 2.984375 -5.125 C 2.203125 -6.988281 1.8125 -9.0625 1.8125 -11.34375 C 1.8125 -13.707031 2.359375 -15.90625 3.453125 -17.9375 C 4.546875 -19.976562 6.03125 -21.769531 7.90625 -23.3125 C 9.789062 -24.851562 11.914062 -26.0625 14.28125 -26.9375 C 16.65625 -27.8125 19.140625 -28.25 21.734375 -28.25 C 24.378906 -28.25 26.726562 -27.78125 28.78125 -26.84375 C 28.195312 -29.476562 27 -31.546875 25.1875 -33.046875 C 23.375 -34.546875 21.148438 -35.296875 18.515625 -35.296875 C 16.097656 -35.296875 13.9375 -34.847656 12.03125 -33.953125 C 10.132812 -33.054688 8.5625 -31.644531 7.3125 -29.71875 C 6.238281 -31.820312 5.1875 -33.664062 4.15625 -35.25 C 3.125 -36.84375 1.960938 -38.535156 0.671875 -40.328125 Z M 16.109375 -16.5 C 16.109375 -15.425781 16.460938 -14.421875 17.171875 -13.484375 C 17.890625 -12.546875 19.144531 -12.078125 20.9375 -12.078125 C 22.5 -12.078125 24.003906 -12.566406 25.453125 -13.546875 C 26.910156 -14.535156 28.132812 -15.878906 29.125 -17.578125 L 29.125 -23.546875 C 29.125 -23.910156 29.109375 -24.28125 29.078125 -24.65625 C 29.054688 -25.039062 29.023438 -25.390625 28.984375 -25.703125 C 28.578125 -25.921875 28.140625 -26.085938 27.671875 -26.203125 C 27.203125 -26.316406 26.703125 -26.375 26.171875 -26.375 C 24.285156 -26.375 22.582031 -25.832031 21.0625 -24.75 C 19.539062 -23.675781 18.332031 -22.378906 17.4375 -20.859375 C 16.550781 -19.335938 16.109375 -17.882812 16.109375 -16.5 Z M 16.109375 -16.5 "/></g></g></g><g fill="#68aa78" fill-opacity="1"><g transform="translate(256.62109, 93.873348)"><g><path d="M -2.6875 -40.125 L -2.6875 -40.453125 C -1.03125 -40.546875 0.742188 -40.847656 2.640625 -41.359375 C 4.546875 -41.878906 6.425781 -42.53125 8.28125 -43.3125 C 10.144531 -44.09375 11.890625 -44.894531 13.515625 -45.71875 C 15.148438 -46.550781 16.523438 -47.300781 17.640625 -47.96875 L 17.640625 -32.546875 L 24.484375 -46.234375 C 25.378906 -46.722656 26.328125 -47.132812 27.328125 -47.46875 C 28.335938 -47.800781 29.472656 -47.96875 30.734375 -47.96875 C 34.984375 -47.96875 38.335938 -46.726562 40.796875 -44.25 C 43.253906 -41.769531 44.484375 -38 44.484375 -32.9375 L 44.484375 -8.390625 C 44.484375 -6.734375 44.679688 -5.085938 45.078125 -3.453125 C 45.484375 -1.816406 46.066406 -0.664062 46.828125 0 L 28.375 0 C 29.132812 -0.664062 29.71875 -1.804688 30.125 -3.421875 C 30.53125 -5.035156 30.734375 -6.664062 30.734375 -8.3125 L 30.734375 -29.59375 C 30.734375 -31.738281 30.171875 -33.390625 29.046875 -34.546875 C 27.929688 -35.710938 26.546875 -36.296875 24.890625 -36.296875 C 22.785156 -36.296875 21.175781 -35.625 20.0625 -34.28125 C 18.945312 -32.9375 18.140625 -31.484375 17.640625 -29.921875 L 17.640625 -8.390625 C 17.640625 -6.734375 17.84375 -5.085938 18.25 -3.453125 C 18.65625 -1.816406 19.238281 -0.664062 20 0 L 1.546875 0 C 2.304688 -0.664062 2.882812 -1.804688 3.28125 -3.421875 C 3.6875 -5.035156 3.890625 -6.664062 3.890625 -8.3125 L 3.890625 -30.53125 C 3.890625 -31.019531 3.84375 -31.78125 3.75 -32.8125 C 3.664062 -33.84375 3.421875 -34.914062 3.015625 -36.03125 C 2.617188 -37.144531 1.972656 -38.101562 1.078125 -38.90625 C 0.179688 -39.71875 -1.070312 -40.125 -2.6875 -40.125 Z M -2.6875 -40.125 "/></g></g></g><g fill="#68aa78" fill-opacity="1"><g transform="translate(304.790578, 93.873348)"><g><path d="M -2.6875 -40.125 L -2.6875 -40.453125 C -1.03125 -40.546875 0.742188 -40.847656 2.640625 -41.359375 C 4.546875 -41.878906 6.425781 -42.53125 8.28125 -43.3125 C 10.144531 -44.09375 11.890625 -44.894531 13.515625 -45.71875 C 15.148438 -46.550781 16.523438 -47.300781 17.640625 -47.96875 L 17.640625 -32.546875 L 24.484375 -46.234375 C 25.378906 -46.722656 26.328125 -47.132812 27.328125 -47.46875 C 28.335938 -47.800781 29.472656 -47.96875 30.734375 -47.96875 C 34.984375 -47.96875 38.335938 -46.726562 40.796875 -44.25 C 43.253906 -41.769531 44.484375 -38 44.484375 -32.9375 L 44.484375 -8.390625 C 44.484375 -6.734375 44.679688 -5.085938 45.078125 -3.453125 C 45.484375 -1.816406 46.066406 -0.664062 46.828125 0 L 28.375 0 C 29.132812 -0.664062 29.71875 -1.804688 30.125 -3.421875 C 30.53125 -5.035156 30.734375 -6.664062 30.734375 -8.3125 L 30.734375 -29.59375 C 30.734375 -31.738281 30.171875 -33.390625 29.046875 -34.546875 C 27.929688 -35.710938 26.546875 -36.296875 24.890625 -36.296875 C 22.785156 -36.296875 21.175781 -35.625 20.0625 -34.28125 C 18.945312 -32.9375 18.140625 -31.484375 17.640625 -29.921875 L 17.640625 -8.390625 C 17.640625 -6.734375 17.84375 -5.085938 18.25 -3.453125 C 18.65625 -1.816406 19.238281 -0.664062 20 0 L 1.546875 0 C 2.304688 -0.664062 2.882812 -1.804688 3.28125 -3.421875 C 3.6875 -5.035156 3.890625 -6.664062 3.890625 -8.3125 L 3.890625 -30.53125 C 3.890625 -31.019531 3.84375 -31.78125 3.75 -32.8125 C 3.664062 -33.84375 3.421875 -34.914062 3.015625 -36.03125 C 2.617188 -37.144531 1.972656 -38.101562 1.078125 -38.90625 C 0.179688 -39.71875 -1.070312 -40.125 -2.6875 -40.125 Z M -2.6875 -40.125 "/></g></g></g><g fill="#68aa78" fill-opacity="1"><g transform="translate(352.960066, 93.873348)"><g><path d="M -2.6875 -40.453125 C -1.03125 -40.546875 0.742188 -40.847656 2.640625 -41.359375 C 4.546875 -41.878906 6.425781 -42.53125 8.28125 -43.3125 C 10.144531 -44.09375 11.890625 -44.894531 13.515625 -45.71875 C 15.148438 -46.550781 16.523438 -47.300781 17.640625 -47.96875 L 17.640625 -8.390625 C 17.640625 -6.734375 17.84375 -5.085938 18.25 -3.453125 C 18.65625 -1.816406 19.238281 -0.664062 20 0 L 1.546875 0 C 2.304688 -0.664062 2.882812 -1.804688 3.28125 -3.421875 C 3.6875 -5.035156 3.890625 -6.664062 3.890625 -8.3125 L 3.890625 -30.53125 C 3.890625 -31.019531 3.84375 -31.78125 3.75 -32.8125 C 3.664062 -33.84375 3.421875 -34.914062 3.015625 -36.03125 C 2.617188 -37.144531 1.972656 -38.101562 1.078125 -38.90625 C 0.179688 -39.71875 -1.070312 -40.125 -2.6875 -40.125 Z M 11 -51.1875 C 9.34375 -51.1875 7.84375 -51.585938 6.5 -52.390625 C 5.164062 -53.203125 4.09375 -54.289062 3.28125 -55.65625 C 2.476562 -57.019531 2.078125 -58.503906 2.078125 -60.109375 C 2.078125 -61.765625 2.476562 -63.273438 3.28125 -64.640625 C 4.09375 -66.003906 5.164062 -67.085938 6.5 -67.890625 C 7.84375 -68.703125 9.34375 -69.109375 11 -69.109375 C 12.65625 -69.109375 14.164062 -68.703125 15.53125 -67.890625 C 16.894531 -67.085938 17.976562 -66.003906 18.78125 -64.640625 C 19.59375 -63.273438 20 -61.765625 20 -60.109375 C 20 -58.503906 19.59375 -57.019531 18.78125 -55.65625 C 17.976562 -54.289062 16.894531 -53.203125 15.53125 -52.390625 C 14.164062 -51.585938 12.65625 -51.1875 11 -51.1875 Z M 11 -51.1875 "/></g></g></g><g fill="#68aa78" fill-opacity="1"><g transform="translate(91.11789, 187.692293)"><g><path d="M 1.34375 0 C 2.101562 -0.664062 2.679688 -1.816406 3.078125 -3.453125 C 3.484375 -5.085938 3.6875 -6.734375 3.6875 -8.390625 L 3.6875 -56.359375 C 3.6875 -58.054688 3.484375 -59.707031 3.078125 -61.3125 C 2.679688 -62.925781 2.101562 -64.070312 1.34375 -64.75 L 21.140625 -64.75 C 20.378906 -64.070312 19.796875 -62.9375 19.390625 -61.34375 C 18.984375 -59.757812 18.78125 -58.117188 18.78125 -56.421875 L 18.78125 -12.75 L 36.296875 -12.75 C 37.410156 -12.75 38.660156 -12.847656 40.046875 -13.046875 C 41.441406 -13.253906 42.84375 -13.625 44.25 -14.15625 C 45.65625 -14.695312 46.894531 -15.476562 47.96875 -16.5 L 47.96875 0 Z M 1.34375 0 "/></g></g></g><g fill="#68aa78" fill-opacity="1"><g transform="translate(140.427879, 187.692293)"><g><path d="M 0.671875 -40.328125 C 2.773438 -42.828125 5.300781 -44.722656 8.25 -46.015625 C 11.207031 -47.316406 14.585938 -47.96875 18.390625 -47.96875 C 21.609375 -47.96875 24.679688 -47.539062 27.609375 -46.6875 C 30.535156 -45.84375 33.140625 -44.570312 35.421875 -42.875 C 37.703125 -41.175781 39.515625 -39.082031 40.859375 -36.59375 C 42.203125 -34.113281 42.875 -31.21875 42.875 -27.90625 L 42.875 -14.421875 C 42.875 -13.171875 42.984375 -11.921875 43.203125 -10.671875 C 43.429688 -9.421875 43.914062 -8.378906 44.65625 -7.546875 C 45.394531 -6.722656 46.566406 -6.3125 48.171875 -6.3125 L 48.171875 -5.96875 C 46.878906 -5.300781 45.515625 -4.5625 44.078125 -3.75 C 42.648438 -2.945312 41.273438 -2.1875 39.953125 -1.46875 C 38.628906 -0.757812 37.460938 -0.171875 36.453125 0.296875 C 35.453125 0.765625 34.753906 1 34.359375 1 C 33.234375 1 32.28125 0.53125 31.5 -0.40625 C 30.71875 -1.34375 30.125 -2.515625 29.71875 -3.921875 C 29.320312 -5.328125 29.125 -6.703125 29.125 -8.046875 L 29.125 -15.15625 C 28.269531 -13.820312 27.316406 -12.347656 26.265625 -10.734375 C 25.210938 -9.117188 24.207031 -7.550781 23.25 -6.03125 C 22.289062 -4.507812 21.472656 -3.238281 20.796875 -2.21875 C 20.484375 -1.675781 19.65625 -1.003906 18.3125 -0.203125 C 16.96875 0.597656 15.378906 1 13.546875 1 C 10.773438 1 8.515625 0.441406 6.765625 -0.671875 C 5.023438 -1.785156 3.765625 -3.269531 2.984375 -5.125 C 2.203125 -6.988281 1.8125 -9.0625 1.8125 -11.34375 C 1.8125 -13.707031 2.359375 -15.90625 3.453125 -17.9375 C 4.546875 -19.976562 6.03125 -21.769531 7.90625 -23.3125 C 9.789062 -24.851562 11.914062 -26.0625 14.28125 -26.9375 C 16.65625 -27.8125 19.140625 -28.25 21.734375 -28.25 C 24.378906 -28.25 26.726562 -27.78125 28.78125 -26.84375 C 28.195312 -29.476562 27 -31.546875 25.1875 -33.046875 C 23.375 -34.546875 21.148438 -35.296875 18.515625 -35.296875 C 16.097656 -35.296875 13.9375 -34.847656 12.03125 -33.953125 C 10.132812 -33.054688 8.5625 -31.644531 7.3125 -29.71875 C 6.238281 -31.820312 5.1875 -33.664062 4.15625 -35.25 C 3.125 -36.84375 1.960938 -38.535156 0.671875 -40.328125 Z M 16.109375 -16.5 C 16.109375 -15.425781 16.460938 -14.421875 17.171875 -13.484375 C 17.890625 -12.546875 19.144531 -12.078125 20.9375 -12.078125 C 22.5 -12.078125 24.003906 -12.566406 25.453125 -13.546875 C 26.910156 -14.535156 28.132812 -15.878906 29.125 -17.578125 L 29.125 -23.546875 C 29.125 -23.910156 29.109375 -24.28125 29.078125 -24.65625 C 29.054688 -25.039062 29.023438 -25.390625 28.984375 -25.703125 C 28.578125 -25.921875 28.140625 -26.085938 27.671875 -26.203125 C 27.203125 -26.316406 26.703125 -26.375 26.171875 -26.375 C 24.285156 -26.375 22.582031 -25.832031 21.0625 -24.75 C 19.539062 -23.675781 18.332031 -22.378906 17.4375 -20.859375 C 16.550781 -19.335938 16.109375 -17.882812 16.109375 -16.5 Z M 16.109375 -16.5 "/></g></g></g><g fill="#68aa78" fill-opacity="1"><g transform="translate(186.584709, 187.692293)"><g><path d="M 3.21875 -30.53125 C 3.21875 -31.019531 3.171875 -31.78125 3.078125 -32.8125 C 2.992188 -33.84375 2.75 -34.914062 2.34375 -36.03125 C 1.945312 -37.144531 1.300781 -38.101562 0.40625 -38.90625 C -0.488281 -39.71875 -1.742188 -40.125 -3.359375 -40.125 L -3.359375 -40.453125 C -1.703125 -40.546875 0.0703125 -40.847656 1.96875 -41.359375 C 3.875 -41.878906 5.753906 -42.53125 7.609375 -43.3125 C 9.472656 -44.09375 11.21875 -44.894531 12.84375 -45.71875 C 14.476562 -46.550781 15.851562 -47.300781 16.96875 -47.96875 L 16.96875 -17.375 C 16.96875 -15.226562 17.523438 -13.570312 18.640625 -12.40625 C 19.765625 -11.25 21.15625 -10.671875 22.8125 -10.671875 C 24.914062 -10.671875 26.523438 -11.335938 27.640625 -12.671875 C 28.753906 -14.015625 29.5625 -15.445312 30.0625 -16.96875 L 30.0625 -30.53125 C 30.0625 -31.019531 30.015625 -31.78125 29.921875 -32.8125 C 29.835938 -33.84375 29.59375 -34.914062 29.1875 -36.03125 C 28.78125 -37.144531 28.128906 -38.101562 27.234375 -38.90625 C 26.335938 -39.71875 25.085938 -40.125 23.484375 -40.125 L 23.484375 -40.453125 C 25.140625 -40.546875 26.914062 -40.847656 28.8125 -41.359375 C 30.71875 -41.878906 32.597656 -42.53125 34.453125 -43.3125 C 36.304688 -44.09375 38.050781 -44.894531 39.6875 -45.71875 C 41.320312 -46.550781 42.695312 -47.300781 43.8125 -47.96875 L 43.8125 -33.546875 C 43.8125 -30.503906 43.8125 -27.503906 43.8125 -24.546875 C 43.8125 -21.597656 43.8125 -18.222656 43.8125 -14.421875 C 43.8125 -13.171875 43.921875 -11.921875 44.140625 -10.671875 C 44.367188 -9.421875 44.851562 -8.378906 45.59375 -7.546875 C 46.332031 -6.722656 47.503906 -6.3125 49.109375 -6.3125 L 49.109375 -5.96875 C 47.816406 -5.300781 46.453125 -4.5625 45.015625 -3.75 C 43.585938 -2.945312 42.210938 -2.1875 40.890625 -1.46875 C 39.578125 -0.757812 38.414062 -0.171875 37.40625 0.296875 C 36.394531 0.765625 35.691406 1 35.296875 1 C 34.171875 1 33.21875 0.53125 32.4375 -0.40625 C 31.65625 -1.34375 31.0625 -2.515625 30.65625 -3.921875 C 30.257812 -5.328125 30.0625 -6.703125 30.0625 -8.046875 L 30.0625 -14.421875 L 23.21875 -0.734375 C 22.363281 -0.242188 21.421875 0.164062 20.390625 0.5 C 19.367188 0.832031 18.226562 1 16.96875 1 C 12.71875 1 9.363281 -0.238281 6.90625 -2.71875 C 4.445312 -5.195312 3.21875 -8.960938 3.21875 -14.015625 Z M 3.21875 -30.53125 "/></g></g><g transform="translate(234.351656, 187.692293)"><g><path d="M -2.6875 -40.453125 C -1.03125 -40.546875 0.742188 -40.847656 2.640625 -41.359375 C 4.546875 -41.878906 6.425781 -42.53125 8.28125 -43.3125 C 10.144531 -44.09375 11.890625 -44.894531 13.515625 -45.71875 C 15.148438 -46.550781 16.523438 -47.300781 17.640625 -47.96875 L 17.640625 -34.828125 C 17.953125 -36.296875 18.453125 -37.800781 19.140625 -39.34375 C 19.835938 -40.894531 20.710938 -42.316406 21.765625 -43.609375 C 22.816406 -44.910156 24.054688 -45.960938 25.484375 -46.765625 C 26.921875 -47.566406 28.515625 -47.96875 30.265625 -47.96875 C 31.597656 -47.96875 32.898438 -47.707031 34.171875 -47.1875 C 35.453125 -46.675781 36.316406 -46.132812 36.765625 -45.5625 C 36.140625 -43.5 35.535156 -41.28125 34.953125 -38.90625 C 34.367188 -36.539062 33.898438 -34.238281 33.546875 -32 C 33.003906 -32.9375 31.90625 -33.753906 30.25 -34.453125 C 28.601562 -35.148438 26.90625 -35.5 25.15625 -35.5 C 20.144531 -35.5 17.640625 -33.597656 17.640625 -29.796875 L 17.640625 -8.390625 C 17.640625 -6.734375 17.84375 -5.085938 18.25 -3.453125 C 18.65625 -1.816406 19.238281 -0.664062 20 0 L 1.546875 0 C 2.304688 -0.664062 2.882812 -1.804688 3.28125 -3.421875 C 3.6875 -5.035156 3.890625 -6.664062 3.890625 -8.3125 L 3.890625 -30.53125 C 3.890625 -31.019531 3.84375 -31.78125 3.75 -32.8125 C 3.664062 -33.84375 3.421875 -34.914062 3.015625 -36.03125 C 2.617188 -37.144531 1.972656 -38.101562 1.078125 -38.90625 C 0.179688 -39.71875 -1.070312 -40.125 -2.6875 -40.125 Z M -2.6875 -40.453125 "/></g></g></g><g fill="#68aa78" fill-opacity="1"><g transform="translate(273.799644, 187.692293)"><g><path d="M 0.671875 -40.328125 C 2.773438 -42.828125 5.300781 -44.722656 8.25 -46.015625 C 11.207031 -47.316406 14.585938 -47.96875 18.390625 -47.96875 C 21.609375 -47.96875 24.679688 -47.539062 27.609375 -46.6875 C 30.535156 -45.84375 33.140625 -44.570312 35.421875 -42.875 C 37.703125 -41.175781 39.515625 -39.082031 40.859375 -36.59375 C 42.203125 -34.113281 42.875 -31.21875 42.875 -27.90625 L 42.875 -14.421875 C 42.875 -13.171875 42.984375 -11.921875 43.203125 -10.671875 C 43.429688 -9.421875 43.914062 -8.378906 44.65625 -7.546875 C 45.394531 -6.722656 46.566406 -6.3125 48.171875 -6.3125 L 48.171875 -5.96875 C 46.878906 -5.300781 45.515625 -4.5625 44.078125 -3.75 C 42.648438 -2.945312 41.273438 -2.1875 39.953125 -1.46875 C 38.628906 -0.757812 37.460938 -0.171875 36.453125 0.296875 C 35.453125 0.765625 34.753906 1 34.359375 1 C 33.234375 1 32.28125 0.53125 31.5 -0.40625 C 30.71875 -1.34375 30.125 -2.515625 29.71875 -3.921875 C 29.320312 -5.328125 29.125 -6.703125 29.125 -8.046875 L 29.125 -15.15625 C 28.269531 -13.820312 27.316406 -12.347656 26.265625 -10.734375 C 25.210938 -9.117188 24.207031 -7.550781 23.25 -6.03125 C 22.289062 -4.507812 21.472656 -3.238281 20.796875 -2.21875 C 20.484375 -1.675781 19.65625 -1.003906 18.3125 -0.203125 C 16.96875 0.597656 15.378906 1 13.546875 1 C 10.773438 1 8.515625 0.441406 6.765625 -0.671875 C 5.023438 -1.785156 3.765625 -3.269531 2.984375 -5.125 C 2.203125 -6.988281 1.8125 -9.0625 1.8125 -11.34375 C 1.8125 -13.707031 2.359375 -15.90625 3.453125 -17.9375 C 4.546875 -19.976562 6.03125 -21.769531 7.90625 -23.3125 C 9.789062 -24.851562 11.914062 -26.0625 14.28125 -26.9375 C 16.65625 -27.8125 19.140625 -28.25 21.734375 -28.25 C 24.378906 -28.25 26.726562 -27.78125 28.78125 -26.84375 C 28.195312 -29.476562 27 -31.546875 25.1875 -33.046875 C 23.375 -34.546875 21.148438 -35.296875 18.515625 -35.296875 C 16.097656 -35.296875 13.9375 -34.847656 12.03125 -33.953125 C 10.132812 -33.054688 8.5625 -31.644531 7.3125 -29.71875 C 6.238281 -31.820312 5.1875 -33.664062 4.15625 -35.25 C 3.125 -36.84375 1.960938 -38.535156 0.671875 -40.328125 Z M 16.109375 -16.5 C 16.109375 -15.425781 16.460938 -14.421875 17.171875 -13.484375 C 17.890625 -12.546875 19.144531 -12.078125 20.9375 -12.078125 C 22.5 -12.078125 24.003906 -12.566406 25.453125 -13.546875 C 26.910156 -14.535156 28.132812 -15.878906 29.125 -17.578125 L 29.125 -23.546875 C 29.125 -23.910156 29.109375 -24.28125 29.078125 -24.65625 C 29.054688 -25.039062 29.023438 -25.390625 28.984375 -25.703125 C 28.578125 -25.921875 28.140625 -26.085938 27.671875 -26.203125 C 27.203125 -26.316406 26.703125 -26.375 26.171875 -26.375 C 24.285156 -26.375 22.582031 -25.832031 21.0625 -24.75 C 19.539062 -23.675781 18.332031 -22.378906 17.4375 -20.859375 C 16.550781 -19.335938 16.109375 -17.882812 16.109375 -16.5 Z M 16.109375 -16.5 "/></g></g></g><g mask="url(#9b876e8263)"><g transform="matrix(1, 0, 0, 1, 184, 73)"><g clip-path="url(#1b297d4518)"><g fill="#68aa78" fill-opacity="1"><g transform="translate(0.268521, 75.880685)"><g><path d="M 33.96875 12.171875 C 30.695312 12.171875 27.773438 11.535156 25.203125 10.265625 C 22.628906 8.992188 20.585938 7.207031 19.078125 4.90625 C 17.566406 2.601562 16.8125 -0.0859375 16.8125 -3.171875 C 16.8125 -3.535156 16.8125 -3.882812 16.8125 -4.21875 C 16.8125 -4.550781 16.835938 -4.898438 16.890625 -5.265625 C 13.984375 -5.566406 11.332031 -6.171875 8.9375 -7.078125 C 6.550781 -7.992188 4.660156 -9.253906 3.265625 -10.859375 C 1.878906 -12.460938 1.1875 -14.445312 1.1875 -16.8125 C 1.1875 -18.988281 1.847656 -21.0625 3.171875 -23.03125 C 4.503906 -25 6.1875 -26.84375 8.21875 -28.5625 C 10.25 -30.289062 12.382812 -31.789062 14.625 -33.0625 C 18.800781 -35.601562 22.890625 -37.515625 26.890625 -38.796875 C 26.097656 -39.765625 25.472656 -40.898438 25.015625 -42.203125 C 24.566406 -43.503906 24.34375 -44.757812 24.34375 -45.96875 C 24.34375 -48.144531 25.144531 -50.097656 26.75 -51.828125 C 28.351562 -53.554688 30.425781 -55.023438 32.96875 -56.234375 C 35.519531 -57.441406 38.21875 -58.378906 41.0625 -59.046875 C 43.90625 -59.710938 46.539062 -60.046875 48.96875 -60.046875 C 55.382812 -60.046875 58.59375 -58.078125 58.59375 -54.140625 C 58.59375 -52.328125 57.894531 -50.753906 56.5 -49.421875 C 55.113281 -48.085938 53.570312 -47.421875 51.875 -47.421875 C 50.238281 -47.421875 49.421875 -47.84375 49.421875 -48.6875 C 49.421875 -49.289062 49.8125 -49.59375 50.59375 -49.59375 C 50.84375 -49.59375 51.148438 -49.535156 51.515625 -49.421875 C 51.628906 -49.359375 51.835938 -49.328125 52.140625 -49.328125 C 52.929688 -49.328125 53.691406 -49.78125 54.421875 -50.6875 C 55.390625 -51.84375 55.875 -52.9375 55.875 -53.96875 C 55.875 -55.59375 54.929688 -56.769531 53.046875 -57.5 C 51.835938 -57.925781 50.296875 -58.140625 48.421875 -58.140625 C 45.992188 -58.140625 43.582031 -57.726562 41.1875 -56.90625 C 38.800781 -56.09375 36.625 -54.972656 34.65625 -53.546875 C 32.6875 -52.128906 31.097656 -50.507812 29.890625 -48.6875 C 28.679688 -46.875 28.078125 -44.9375 28.078125 -42.875 C 28.078125 -41.425781 28.4375 -40.273438 29.15625 -39.421875 C 31.457031 -40.085938 33.488281 -40.421875 35.25 -40.421875 C 38.757812 -40.421875 40.515625 -39.726562 40.515625 -38.34375 C 40.515625 -37.550781 40 -36.863281 38.96875 -36.28125 C 37.9375 -35.707031 36.816406 -35.421875 35.609375 -35.421875 C 32.578125 -35.421875 30.003906 -36.210938 27.890625 -37.796875 C 26.191406 -37.304688 24.40625 -36.546875 22.53125 -35.515625 C 20.65625 -34.484375 18.6875 -33.210938 16.625 -31.703125 C 13.84375 -29.640625 11.421875 -27.351562 9.359375 -24.84375 C 7.296875 -22.332031 6.265625 -19.65625 6.265625 -16.8125 C 6.265625 -11.414062 9.929688 -8.414062 17.265625 -7.8125 C 17.929688 -12.113281 19.367188 -15.988281 21.578125 -19.4375 C 23.785156 -22.894531 26.707031 -25.742188 30.34375 -27.984375 C 32.40625 -29.253906 34.75 -30.265625 37.375 -31.015625 C 40.007812 -31.773438 42.675781 -32.378906 45.375 -32.828125 C 48.070312 -33.285156 50.539062 -33.695312 52.78125 -34.0625 C 55.75 -34.550781 58.140625 -35.097656 59.953125 -35.703125 C 61.773438 -36.304688 63.140625 -36.941406 64.046875 -37.609375 C 64.710938 -38.097656 65.210938 -38.644531 65.546875 -39.25 C 65.878906 -39.851562 66.046875 -40.394531 66.046875 -40.875 C 66.046875 -41.238281 65.984375 -41.585938 65.859375 -41.921875 C 65.742188 -42.253906 65.894531 -42.421875 66.3125 -42.421875 C 66.738281 -42.421875 67.070312 -42.144531 67.3125 -41.59375 C 67.550781 -41.050781 67.671875 -40.539062 67.671875 -40.0625 C 67.671875 -38.851562 67.066406 -37.550781 65.859375 -36.15625 C 64.523438 -34.820312 62.921875 -33.820312 61.046875 -33.15625 C 59.171875 -32.488281 57.203125 -31.972656 55.140625 -31.609375 C 53.078125 -31.242188 51.050781 -30.820312 49.0625 -30.34375 C 50.207031 -29.25 50.78125 -27.613281 50.78125 -25.4375 C 50.78125 -20.957031 48.238281 -16.65625 43.15625 -12.53125 C 39.632812 -9.75 35.890625 -7.828125 31.921875 -6.765625 C 27.960938 -5.703125 23.710938 -5.171875 19.171875 -5.171875 C 19.109375 -4.816406 19.0625 -4.441406 19.03125 -4.046875 C 19 -3.648438 18.984375 -3.269531 18.984375 -2.90625 C 18.984375 1.144531 20.359375 4.441406 23.109375 6.984375 C 25.867188 9.535156 29.488281 10.8125 33.96875 10.8125 C 35.488281 10.8125 36.789062 10.3125 37.875 9.3125 C 38.96875 8.3125 39.515625 7.175781 39.515625 5.90625 C 39.515625 5.476562 39.425781 5.054688 39.25 4.640625 C 39.1875 4.515625 39.15625 4.359375 39.15625 4.171875 C 39.15625 3.816406 39.394531 3.640625 39.875 3.640625 C 40.539062 3.640625 40.875 4.425781 40.875 6 C 40.875 7.632812 40.175781 9.070312 38.78125 10.3125 C 37.394531 11.550781 35.789062 12.171875 33.96875 12.171875 Z M 35.15625 -36.875 C 36.664062 -36.875 37.546875 -37.238281 37.796875 -37.96875 C 37.847656 -38.570312 36.96875 -38.875 35.15625 -38.875 C 33.695312 -38.875 32.0625 -38.695312 30.25 -38.34375 C 31.757812 -37.363281 33.394531 -36.875 35.15625 -36.875 Z M 19.4375 -7.71875 C 23.375 -7.71875 27.414062 -8.351562 31.5625 -9.625 C 35.71875 -10.894531 39.21875 -12.832031 42.0625 -15.4375 C 45.875 -18.894531 47.78125 -22.441406 47.78125 -26.078125 C 47.78125 -28.734375 46.628906 -30.0625 44.328125 -30.0625 C 43.660156 -30.0625 42.175781 -29.789062 39.875 -29.25 C 28.1875 -24.882812 21.375 -17.707031 19.4375 -7.71875 Z M 19.4375 -7.71875 "/></g></g></g></g></g></g></svg>